<?xml version="1.0" encoding="UTF-8" standalone="no"?>
<!-- Created with Inkscape (http://www.inkscape.org/) -->

<svg
   width="183.79912mm"
   height="87.542877mm"
   viewBox="0 0 183.79912 87.542877"
   version="1.1"
   id="svg1"
   xmlns="http://www.w3.org/2000/svg"
   xmlns:svg="http://www.w3.org/2000/svg">
  <defs
     id="defs1" />
  <g
     id="layer1"
     transform="translate(-63.427027,-56.061583)">
    <g
       id="g27"
       transform="matrix(0.89247118,0,0,1,9.7869875,1.8180034)">
      <path
         id="rect1-6"
         style="fill:#00a600;stroke-width:0.25661"
         d="m 66.150976,83.358971 h 85.647794 c 3.26017,0 6.5489,2.675115 5.88478,5.884782 -3.44758,16.661937 -5.63808,33.312127 0,46.657917 1.29438,3.06391 -2.62461,5.88479 -5.88478,5.88479 H 66.150976 c -3.260169,0 -6.863478,-2.73533 -5.884783,-5.88479 4.832978,-15.55264 2.969325,-31.10528 0,-46.657917 -0.614197,-3.217024 2.624614,-5.884782 5.884783,-5.884782 z" />
      <path
         id="path2-5"
         style="fill:none;stroke:#00a600;stroke-width:5.112"
         transform="scale(-1)"
         d="m -76.215893,-99.779083 a 33.598049,43.032814 0 0 1 -16.799025,37.26751 33.598049,43.032814 0 0 1 -33.598052,-1e-6 33.598049,43.032814 0 0 1 -16.79902,-37.267509" />
    </g>
    <path
       style="font-weight:bold;font-size:38.2346px;font-family:Lexend;-inkscape-font-specification:Lexend;fill:#ffffff;stroke-width:3.18621"
       d="m 75.729429,127.39021 v -26.76422 h 18.658485 v 5.54402 H 82.038138 V 121.8462 H 94.77026 v 5.54401 z m 3.058768,-10.97333 v -5.27637 h 13.87916 v 5.27637 z m 29.670103,11.35568 q -2.94407,0 -5.27638,-1.37645 -2.33231,-1.37644 -3.708754,-3.74699 -1.338211,-2.40878 -1.338211,-5.42931 0,-3.02053 1.338211,-5.39108 1.376444,-2.40878 3.708754,-3.78522 2.33231,-1.37645 5.27638,-1.37645 2.71465,0 4.97049,0.95586 2.29408,0.95587 3.63229,2.67643 l -3.32641,3.9764 q -0.53528,-0.61176 -1.26174,-1.14704 -0.72646,-0.53529 -1.60585,-0.84116 -0.8794,-0.30588 -1.83526,-0.30588 -1.45292,0 -2.56172,0.68822 -1.10881,0.64999 -1.72056,1.83526 -0.61175,1.18528 -0.61175,2.71466 0,1.45291 0.61175,2.63819 0.64999,1.18527 1.75879,1.87349 1.10881,0.68823 2.52349,0.68823 0.9941,0 1.83526,-0.22941 0.84116,-0.26764 1.52938,-0.76469 0.72646,-0.49705 1.33821,-1.22351 l 3.28818,4.01463 q -1.29998,1.64409 -3.63229,2.59995 -2.29408,0.95587 -4.93226,0.95587 z m 21.48784,0 q -3.17347,0 -5.65872,-1.37645 -2.44701,-1.37644 -3.89993,-3.74699 -1.41468,-2.37054 -1.41468,-5.42931 0,-3.05877 1.41468,-5.42931 1.45292,-2.37055 3.89993,-3.74699 2.48525,-1.37645 5.65872,-1.37645 3.17347,0 5.62049,1.37645 2.48525,1.37644 3.89993,3.74699 1.41468,2.37054 1.41468,5.42931 0,3.05877 -1.41468,5.42931 -1.41468,2.37055 -3.89993,3.74699 -2.44702,1.37645 -5.62049,1.37645 z m 0,-5.27638 q 1.37645,0 2.44702,-0.68822 1.07057,-0.68822 1.68232,-1.87349 0.61175,-1.18528 0.57352,-2.71466 0.0382,-1.52938 -0.57352,-2.71466 -0.61175,-1.2235 -1.68232,-1.91173 -1.07057,-0.68822 -2.44702,-0.68822 -1.37644,0 -2.48525,0.68822 -1.07056,0.68823 -1.68232,1.91173 -0.61175,1.18528 -0.57352,2.71466 -0.0382,1.52938 0.57352,2.71466 0.61176,1.18527 1.68232,1.87349 1.10881,0.68822 2.48525,0.68822 z"
       id="text1-1"
       aria-label="Eco" />
    <path
       id="text4-4"
       style="font-weight:bold;font-size:38.2346px;font-family:Lexend;-inkscape-font-specification:Lexend;fill:#00a600;stroke:#ffffff;stroke-width:0.4;stroke-dasharray:none"
       d="m 177.09502,99.402611 v 28.293359 h 1.26142 1.83555 3.02049 v -12.15843 c 0,-0.4843 0.0892,-0.93058 0.26768,-1.33842 0.20392,-0.40784 0.47117,-0.76434 0.80254,-1.07022 0.33136,-0.33136 0.72664,-0.57363 1.18545,-0.72657 0.45882,-0.17842 0.95611,-0.26768 1.49139,-0.26768 0.68822,-0.0255 1.26149,0.10202 1.7203,0.38241 0.48431,0.2549 0.84133,0.65017 1.07074,1.18545 0.22941,0.53528 0.34417,1.21056 0.34417,2.02624 v 11.96722 h 6.15569 v -12.46435 c 0,-1.78428 -0.26777,-3.28836 -0.80305,-4.51187 -0.53529,-1.249 -1.32532,-2.17929 -2.3704,-2.79104 -1.04508,-0.63724 -2.3324,-0.9555 -3.86178,-0.9555 -1.12155,0 -2.1921,0.229 -3.21169,0.68781 -1.01958,0.45881 -1.89887,1.07085 -2.63808,1.83555 -0.0929,0.0962 -0.18214,0.19378 -0.26768,0.293 V 99.402611 Z m -14.72055,0.917769 c -1.32546,0 -2.60003,0.2035 -3.82354,0.61134 -1.2235,0.38234 -2.30681,0.94338 -3.24993,1.68258 -0.91763,0.71371 -1.65666,1.58025 -2.21743,2.59984 -0.53529,0.9941 -0.80305,2.09016 -0.80305,3.28817 0,1.12155 0.1785,2.1411 0.53536,3.05873 0.35686,0.89214 0.89188,1.69493 1.60559,2.40864 0.7392,0.68822 1.65726,1.27476 2.75332,1.75907 1.09606,0.4843 2.38286,0.89233 3.86126,1.22369 0.53528,0.10196 1.05807,0.22896 1.56787,0.38189 0.5098,0.12746 0.99433,0.29322 1.45314,0.49713 0.45881,0.17843 0.85357,0.38244 1.18494,0.61185 0.33137,0.22941 0.58638,0.49718 0.76481,0.80305 0.20392,0.30588 0.30592,0.65015 0.30592,1.0325 0,0.50979 -0.153,0.9428 -0.45888,1.29966 -0.30588,0.33136 -0.73941,0.58638 -1.30018,0.76481 -0.56077,0.17843 -1.18505,0.26768 -1.87327,0.26768 -1.37645,0 -2.71477,-0.29326 -4.01474,-0.87953 -1.27449,-0.58626 -2.54906,-1.73332 -3.82354,-3.44113 l -3.93826,4.47363 c 0.86664,1.09606 1.84846,2.05185 2.94452,2.86752 1.09606,0.79019 2.34461,1.40171 3.74654,1.83503 1.42743,0.40784 3.02076,0.61185 4.77955,0.61185 2.03918,0 3.83602,-0.33152 5.39089,-0.99425 1.58037,-0.68823 2.81668,-1.66952 3.70882,-2.94401 0.91763,-1.29997 1.37666,-2.88004 1.37666,-4.7408 0,-1.19801 -0.22951,-2.24307 -0.68833,-3.13521 -0.43332,-0.91763 -1.07035,-1.70818 -1.91151,-2.37091 -0.81567,-0.66273 -1.79697,-1.22326 -2.94401,-1.68207 -1.12155,-0.45881 -2.38336,-0.82858 -3.7853,-1.10897 -0.61175,-0.10196 -1.19829,-0.22947 -1.75907,-0.38241 -0.56077,-0.17843 -1.05753,-0.38193 -1.49086,-0.61133 -0.43332,-0.2549 -0.7776,-0.53542 -1.0325,-0.8413 -0.2549,-0.30587 -0.3824,-0.67564 -0.3824,-1.10897 0,-0.48431 0.15301,-0.89182 0.45889,-1.22318 0.30587,-0.35686 0.72665,-0.62463 1.26193,-0.80305 0.56078,-0.20392 1.2233,-0.30593 1.988,-0.30593 0.7392,0 1.45272,0.11476 2.14095,0.34417 0.71371,0.2294 1.37676,0.56041 1.98851,0.99373 0.63724,0.43333 1.22326,0.98161 1.75855,1.64435 l 4.01474,-3.86178 c -0.63724,-0.96861 -1.41452,-1.7969 -2.33216,-2.48512 -0.89214,-0.68823 -1.97544,-1.21101 -3.24993,-1.56786 -1.249,-0.38235 -2.75308,-0.5731 -4.51187,-0.5731 z m 48.55776,6.65283 c -2.11565,0 -4.00173,0.45851 -5.65857,1.37614 -1.63134,0.91763 -2.93141,2.1667 -3.90002,3.74706 -0.94312,1.58037 -1.41438,3.38995 -1.41438,5.42913 0,2.03918 0.47126,3.84928 1.41438,5.42964 0.96861,1.58036 2.26868,2.82943 3.90002,3.74706 1.65684,0.91763 3.54292,1.37614 5.65857,1.37614 2.11565,0 3.98951,-0.45851 5.62085,-1.37614 1.65683,-0.91763 2.9569,-2.1667 3.90002,-3.74706 0.94312,-1.58036 1.41438,-3.39046 1.41438,-5.42964 0,-2.03918 -0.47126,-3.84876 -1.41438,-5.42913 -0.94312,-1.58036 -2.24319,-2.82943 -3.90002,-3.74706 -1.63134,-0.91763 -3.5052,-1.37614 -5.62085,-1.37614 z m 27.10843,0.0382 c -1.17254,0 -2.29409,0.21624 -3.36466,0.64957 -1.04508,0.40783 -1.91162,0.95612 -2.59984,1.64435 -0.0953,0.0953 -0.18575,0.19215 -0.2713,0.29042 l -0.1111,-2.20245 h -5.81153 v 28.71452 h 6.15569 V 125.6315 c 0.71372,0.73921 1.593,1.32523 2.63808,1.75855 1.04508,0.43333 2.14114,0.65009 3.28818,0.65009 1.75878,0 3.31387,-0.44576 4.66483,-1.3379 1.37644,-0.91763 2.447,-2.1667 3.21169,-3.74706 0.79018,-1.58036 1.18545,-3.39046 1.18545,-5.42964 0,-2.06468 -0.39527,-3.87426 -1.18545,-5.42913 -0.76469,-1.58036 -1.82249,-2.81668 -3.17345,-3.70882 -1.35096,-0.91763 -2.89329,-1.37614 -4.62659,-1.37614 z m -1.56735,5.16144 c 0.94312,0 1.74591,0.22951 2.40864,0.68833 0.68822,0.43332 1.22376,1.0576 1.6061,1.87327 0.38235,0.79018 0.57309,1.72047 0.57309,2.79105 0,1.09606 -0.19074,2.03962 -0.57309,2.8298 -0.38234,0.79018 -0.91788,1.41445 -1.6061,1.87327 -0.68823,0.43332 -1.49101,0.65009 -2.40864,0.65009 -0.94312,0 -1.75865,-0.21677 -2.44688,-0.65009 -0.68822,-0.45882 -1.22376,-1.08309 -1.6061,-1.87327 -0.38235,-0.79018 -0.57361,-1.73374 -0.57361,-2.8298 0,-1.07058 0.19126,-2.01362 0.57361,-2.82929 0.38234,-0.81567 0.91788,-1.43994 1.6061,-1.87327 0.68823,-0.43333 1.50376,-0.65009 2.44688,-0.65009 z m -25.54108,0.0382 c 0.91763,0 1.73369,0.22952 2.4474,0.68833 0.71371,0.45881 1.27423,1.09584 1.68207,1.91151 0.40781,0.79018 0.59907,1.69497 0.57361,2.71457 0.0255,1.01958 -0.16577,1.9249 -0.57361,2.71508 -0.40784,0.79018 -0.96836,1.41445 -1.68207,1.87327 -0.71371,0.45881 -1.52977,0.68833 -2.4474,0.68833 -0.91763,0 -1.74592,-0.22952 -2.48512,-0.68833 -0.71371,-0.45882 -1.27422,-1.08309 -1.68206,-1.87327 -0.40781,-0.79018 -0.59908,-1.6955 -0.57361,-2.71508 -0.0255,-1.0196 0.16577,-1.92439 0.57361,-2.71457 0.40784,-0.81567 0.96835,-1.4527 1.68206,-1.91151 0.7392,-0.45881 1.56749,-0.68833 2.48512,-0.68833 z" />
    <path
       id="path4-6"
       style="fill:#00a600;fill-opacity:1;stroke:#ffffff;stroke-width:0.1;stroke-dasharray:none;stroke-opacity:1"
       d="m 218.23262,103.68296 c -1.62273,2.60536 -4.28569,3.61037 -4.93787,3.01208 -0.65218,-0.5983 -0.50914,-3.61333 2.19487,-5.06573 2.73649,-1.46985 8.73346,-4.52526 8.1344,-3.873791 -0.83075,0.903604 -4.21725,4.042291 -5.3914,5.927441 z" />
    <path
       id="path5-5"
       style="fill:#00a600;fill-opacity:1;stroke:#ffffff;stroke-width:0.1;stroke-dasharray:none;stroke-opacity:1"
       d="m 213.39499,100.84956 c -1.38458,3.07347 -2.67754,5.40383 -3.44592,5.05769 -0.76836,-0.34616 -0.2966,-3.80569 1.08799,-6.879159 1.38459,-3.073468 3.89618,-6.791422 3.54452,-6.025564 -0.19229,0.41953 0.198,4.773564 -1.18659,7.847033 z" />
    <rect
       style="fill:#00a600;fill-opacity:1;stroke:none;stroke-width:0.1;stroke-dasharray:none;stroke-opacity:1"
       id="rect30"
       width="2.5775955"
       height="2.4431121"
       x="181.14893"
       y="109.80556"
       ry="0" />
    <rect
       style="fill:#00a600;fill-opacity:1;stroke:none;stroke-width:0.104171;stroke-dasharray:none;stroke-opacity:1"
       id="rect31"
       width="2.9668643"
       height="2.6782129"
       x="230.05014"
       y="109.59004" />
  </g>
</svg>
