<?xml version="1.0" encoding="UTF-8" standalone="no"?>
<!-- Created with Inkscape (http://www.inkscape.org/) -->

<svg
   width="183.64897mm"
   height="87.542877mm"
   viewBox="0 0 183.64897 87.542877"
   version="1.1"
   id="svg1"
   inkscape:version="1.4.3 (0d15f75042, 2025-12-25)"
   sodipodi:docname="EcoShop Logo.svg"
   xmlns:inkscape="http://www.inkscape.org/namespaces/inkscape"
   xmlns:sodipodi="http://sodipodi.sourceforge.net/DTD/sodipodi-0.dtd"
   xmlns="http://www.w3.org/2000/svg"
   xmlns:svg="http://www.w3.org/2000/svg">
  <sodipodi:namedview
     id="namedview1"
     pagecolor="#ffffff"
     bordercolor="#000000"
     borderopacity="0.25"
     inkscape:showpageshadow="2"
     inkscape:pageopacity="0.0"
     inkscape:pagecheckerboard="true"
     inkscape:deskcolor="#d1d1d1"
     inkscape:document-units="mm"
     showborder="false"
     showguides="true"
     inkscape:zoom="0.35095563"
     inkscape:cx="86.905574"
     inkscape:cy="250.74395"
     inkscape:window-width="1280"
     inkscape:window-height="728"
     inkscape:window-x="0"
     inkscape:window-y="0"
     inkscape:window-maximized="1"
     inkscape:current-layer="layer1">
    <sodipodi:guide
       position="49.207693,15.404917"
       orientation="0,-1"
       id="guide4"
       inkscape:locked="false" />
    <inkscape:page
       x="1.7781855e-20"
       y="0"
       width="183.64896"
       height="87.542877"
       id="page2"
       margin="0"
       bleed="0" />
  </sodipodi:namedview>
  <defs
     id="defs1" />
  <g
     inkscape:label="Layer 1"
     inkscape:groupmode="layer"
     id="layer1"
     transform="translate(-63.427025,-56.061587)">
    <g
       id="g27"
       transform="matrix(0.89247118,0,0,1,9.7869875,1.8180034)">
      <path
         id="rect1-6"
         style="fill:#00a600;stroke-width:0.25661"
         d="m 66.150976,83.358971 h 85.647794 c 3.26017,0 6.5489,2.675115 5.88478,5.884782 -3.44758,16.661937 -5.63808,33.312127 0,46.657917 1.29438,3.06391 -2.62461,5.88479 -5.88478,5.88479 H 66.150976 c -3.260169,0 -6.863478,-2.73533 -5.884783,-5.88479 4.832978,-15.55264 2.969325,-31.10528 0,-46.657917 -0.614197,-3.217024 2.624614,-5.884782 5.884783,-5.884782 z"
         sodipodi:nodetypes="sssssssss" />
      <path
         id="path2-5"
         style="fill:none;stroke:#00a600;stroke-width:5.112"
         transform="scale(-1)"
         d="m -76.215893,-99.779083 a 33.598049,43.032814 0 0 1 -16.799025,37.26751 33.598049,43.032814 0 0 1 -33.598052,-1e-6 33.598049,43.032814 0 0 1 -16.79902,-37.267509" />
    </g>
    <text
       xml:space="preserve"
       style="font-style:normal;font-variant:normal;font-weight:normal;font-stretch:normal;font-size:38.2346px;font-family:Lexend;-inkscape-font-specification:Lexend;writing-mode:lr-tb;direction:ltr;fill:#ffffff;stroke-width:3.18621"
       x="72.364784"
       y="127.39021"
       id="text1-1"><tspan
         sodipodi:role="line"
         id="tspan1-5"
         style="font-style:normal;font-variant:normal;font-weight:bold;font-stretch:normal;font-family:Lexend;-inkscape-font-specification:Lexend;fill:#ffffff;stroke-width:3.18621"
         x="72.364784"
         y="127.39021">Eco</tspan></text>
    <text
       xml:space="preserve"
       style="font-style:normal;font-variant:normal;font-weight:normal;font-stretch:normal;font-size:38.2346px;font-family:Lexend;-inkscape-font-specification:Lexend;writing-mode:lr-tb;direction:ltr;fill:#00a600;fill-opacity:1;stroke:#ffffff;stroke-width:0.1;stroke-dasharray:none;stroke-opacity:1"
       x="150.1394"
       y="127.69612"
       id="text4-4"><tspan
         sodipodi:role="line"
         id="tspan4-7"
         style="font-weight:bold;font-size:38.2346px;fill:#00a600;fill-opacity:1;stroke:#ffffff;stroke-width:0.1;stroke-dasharray:none;stroke-opacity:1"
         x="150.1394"
         y="127.69612">Shop</tspan></text>
    <path
       id="path4-6"
       style="fill:#00a600;fill-opacity:1;stroke:#ffffff;stroke-width:0.1;stroke-dasharray:none;stroke-opacity:1"
       d="m 218.23262,103.68296 c -1.62273,2.60536 -4.28569,3.61037 -4.93787,3.01208 -0.65218,-0.5983 -0.50914,-3.61333 2.19487,-5.06573 2.73649,-1.46985 8.73346,-4.52526 8.1344,-3.873791 -0.83075,0.903604 -4.21725,4.042291 -5.3914,5.927441 z"
       sodipodi:nodetypes="sssss" />
    <path
       id="path5-5"
       style="fill:#00a600;fill-opacity:1;stroke:#ffffff;stroke-width:0.1;stroke-dasharray:none;stroke-opacity:1"
       d="m 213.39499,100.84956 c -1.38458,3.07347 -2.67754,5.40383 -3.44592,5.05769 -0.76836,-0.34616 -0.2966,-3.80569 1.08799,-6.879159 1.38459,-3.073468 3.89618,-6.791422 3.54452,-6.025564 -0.19229,0.41953 0.198,4.773564 -1.18659,7.847033 z"
       sodipodi:nodetypes="sssss" />
    <rect
       style="fill:#00a600;fill-opacity:1;stroke:none;stroke-width:0.1;stroke-dasharray:none;stroke-opacity:1"
       id="rect30"
       width="2.5775955"
       height="2.4431121"
       x="181.14893"
       y="109.80556"
       ry="0" />
    <rect
       style="fill:#00a600;fill-opacity:1;stroke:none;stroke-width:0.104171;stroke-dasharray:none;stroke-opacity:1"
       id="rect31"
       width="2.9668643"
       height="2.6782129"
       x="230.05014"
       y="109.59004" />
    <rect
       style="fill:#00a600;fill-opacity:1;stroke:none;stroke-width:0.1;stroke-dasharray:none;stroke-opacity:1"
       id="rect32"
       width="2.003747"
       height="3.3520627"
       x="230.09381"
       y="122.19111" />
  </g>
</svg>
